# xmcd CD database file
#
# Track frame offsets:
#	150
#	28712
#	53312
#	68172
#	80020
#	103380
#	120192
#	146352
#	164640
#	191017
#	215267
#	249447
#	274987
#
# Disc length: 4103 seconds
#
# Revision: 0
# Processed by: cddbd v1.5.1PL0 Copyright (c) Steve Scherf et al.
# Submitted via: CDex 1.51
#
DISCID=b610050d
DTITLE=Ned Goold - Entropy
DYEAR=1999
DGENRE=Jazz
TTITLE0=Ew The Man
TTITLE1=You'Re My Everything
TTITLE2=Heigh Ho The Gang'S All Here
TTITLE3=Feeing Off The Host
TTITLE4=Suzie
TTITLE5=Limehouse Blues
TTITLE6=In Other Words Seventeen
TTITLE7=Rosalie
TTITLE8=Creole Rhapsody
TTITLE9=Soft Lights And Sweet Music
TTITLE10=Jonce
TTITLE11=Sweet And Lovely/Thanks
TTITLE12=Entropy
EXTD=YEAR: 1999
EXTT0=
EXTT1=
EXTT2=
EXTT3=
EXTT4=
EXTT5=
EXTT6=
EXTT7=
EXTT8=
EXTT9=
EXTT10=
EXTT11=
EXTT12=
PLAYORDER=
